<svg width="40" height="40" viewBox="0 0 40 40" fill="none" xmlns="http://www.w3.org/2000/svg">
    <path d="M10.0605 23.8223H16.3418C16.502 23.8223 16.6406 23.8789 16.7578 23.9922C16.8711 24.1094 16.9277 24.248 16.9277 24.4082C16.9277 24.5723 16.8711 24.7129 16.7578 24.8301C16.6406 24.9434 16.502 25 16.3418 25H10.0605C9.89648 25 9.75586 24.9434 9.63867 24.8301C9.52539 24.7129 9.46875 24.5723 9.46875 24.4082C9.46875 24.248 9.52539 24.1094 9.63867 23.9922C9.75586 23.8789 9.89648 23.8223 10.0605 23.8223ZM16.3418 18.1914H10.0605C9.89648 18.1914 9.75586 18.1348 9.63867 18.0215C9.52539 17.9082 9.46875 17.7695 9.46875 17.6055C9.46875 17.4414 9.52539 17.3027 9.63867 17.1895C9.75586 17.0723 9.89648 17.0137 10.0605 17.0137H16.3418C16.502 17.0137 16.6406 17.0723 16.7578 17.1895C16.8711 17.3027 16.9277 17.4414 16.9277 17.6055C16.9277 17.7695 16.8711 17.9082 16.7578 18.0215C16.6406 18.1348 16.502 18.1914 16.3418 18.1914ZM10.0605 20.418H16.3418C16.502 20.418 16.6406 20.4766 16.7578 20.5938C16.8711 20.707 16.9277 20.8457 16.9277 21.0098C16.9277 21.1699 16.8711 21.3086 16.7578 21.4258C16.6406 21.5391 16.502 21.5957 16.3418 21.5957H10.0605C9.89648 21.5957 9.75586 21.5391 9.63867 21.4258C9.52539 21.3086 9.46875 21.1699 9.46875 21.0098C9.46875 20.8457 9.52539 20.707 9.63867 20.5938C9.75586 20.4766 9.89648 20.418 10.0605 20.418ZM25.3301 19.3047C25.3301 20.0508 25.0352 20.6543 24.4453 21.1152C25.0352 21.6465 25.3301 22.3086 25.3301 23.1016V24.4082C25.3301 24.5723 25.2734 24.7129 25.1602 24.8301C25.043 24.9434 24.9043 25 24.7441 25C24.5801 25 24.4414 24.9434 24.3281 24.8301C24.2109 24.7129 24.1523 24.5723 24.1523 24.4082V23.1016C24.1523 22.6875 24.0059 22.334 23.7129 22.041C23.4199 21.7441 23.0645 21.5957 22.6465 21.5957H18.4629C18.2988 21.5957 18.1582 21.5391 18.041 21.4258C17.9277 21.3086 17.8711 21.1699 17.8711 21.0098C17.8711 20.8457 17.9277 20.707 18.041 20.5938C18.1582 20.4766 18.2988 20.418 18.4629 20.418H23.0391C23.3477 20.418 23.6094 20.3105 23.8242 20.0957C24.043 19.877 24.1523 19.6133 24.1523 19.3047C24.1523 19 24.043 18.7383 23.8242 18.5195C23.6094 18.3008 23.3477 18.1914 23.0391 18.1914H18.4629C18.2988 18.1914 18.1582 18.1348 18.041 18.0215C17.9277 17.9082 17.8711 17.7695 17.8711 17.6055C17.8711 17.4414 17.9277 17.3027 18.041 17.1895C18.1582 17.0723 18.2988 17.0137 18.4629 17.0137H23.0391C23.6719 17.0137 24.2129 17.2383 24.6621 17.6875C25.1074 18.1367 25.3301 18.6758 25.3301 19.3047ZM26.8652 25C26.7012 25 26.5605 24.9434 26.4434 24.8301C26.3301 24.7129 26.2734 24.5723 26.2734 24.4082C26.2734 24.248 26.3301 24.1094 26.4434 23.9922C26.5605 23.8789 26.7012 23.8223 26.8652 23.8223H31.0488C31.4668 23.8223 31.8223 23.6758 32.1152 23.3828C32.4082 23.0859 32.5547 22.7305 32.5547 22.3164V19.6973C32.5547 19.2832 32.4082 18.9297 32.1152 18.6367C31.8223 18.3398 31.4668 18.1914 31.0488 18.1914H26.8652C26.7012 18.1914 26.5605 18.1348 26.4434 18.0215C26.3301 17.9082 26.2734 17.7695 26.2734 17.6055C26.2734 17.4414 26.3301 17.3027 26.4434 17.1895C26.5605 17.0723 26.7012 17.0137 26.8652 17.0137H31.0488C31.791 17.0137 32.4238 17.2773 32.9473 17.8047C33.4707 18.3281 33.7324 18.959 33.7324 19.6973V22.3164C33.7324 23.0547 33.4707 23.6875 32.9473 24.2148C32.4238 24.7383 31.791 25 31.0488 25H26.8652Z" fill="#CECECE"/>
    <line x1="4" y1="26.655" x2="6.91203" y2="26.655" stroke="#D5D5D5"/>
    <line x1="34.3483" y1="10" x2="34.3483" y2="13.6116" stroke="#D5D5D5"/>
    <line x1="4" y1="10.4029" x2="33.8483" y2="10.4029" stroke="#D5D5D5"/>
    <line x1="4.5" y1="10.9029" x2="4.5" y2="27.155" stroke="#D5D5D5"/>
    <line x1="36.5322" y1="25.5703" x2="36.5322" y2="29" stroke="#D5D5D5"/>
    <line x1="36.5322" y1="12.7087" x2="36.5322" y2="16.1384" stroke="#D5D5D5"/>
    <line x1="6.18396" y1="28.5" x2="36.0322" y2="28.5" stroke="#D5D5D5"/>
    <line x1="6.18396" y1="13.0661" x2="36.0322" y2="13.0661" stroke="#D5D5D5"/>
    <line x1="6.68396" y1="13.5661" x2="6.68396" y2="29" stroke="#D5D5D5"/>
</svg>
