<svg width="123" height="22" viewBox="0 0 123 22" fill="none" xmlns="http://www.w3.org/2000/svg">
    <path d="M8.06055 14.8223H14.3418C14.502 14.8223 14.6406 14.8789 14.7578 14.9922C14.8711 15.1094 14.9277 15.248 14.9277 15.4082C14.9277 15.5723 14.8711 15.7129 14.7578 15.8301C14.6406 15.9434 14.502 16 14.3418 16H8.06055C7.89648 16 7.75586 15.9434 7.63867 15.8301C7.52539 15.7129 7.46875 15.5723 7.46875 15.4082C7.46875 15.248 7.52539 15.1094 7.63867 14.9922C7.75586 14.8789 7.89648 14.8223 8.06055 14.8223ZM14.3418 9.19141H8.06055C7.89648 9.19141 7.75586 9.13477 7.63867 9.02148C7.52539 8.9082 7.46875 8.76953 7.46875 8.60547C7.46875 8.44141 7.52539 8.30273 7.63867 8.18945C7.75586 8.07227 7.89648 8.01367 8.06055 8.01367H14.3418C14.502 8.01367 14.6406 8.07227 14.7578 8.18945C14.8711 8.30273 14.9277 8.44141 14.9277 8.60547C14.9277 8.76953 14.8711 8.9082 14.7578 9.02148C14.6406 9.13477 14.502 9.19141 14.3418 9.19141ZM8.06055 11.418H14.3418C14.502 11.418 14.6406 11.4766 14.7578 11.5938C14.8711 11.707 14.9277 11.8457 14.9277 12.0098C14.9277 12.1699 14.8711 12.3086 14.7578 12.4258C14.6406 12.5391 14.502 12.5957 14.3418 12.5957H8.06055C7.89648 12.5957 7.75586 12.5391 7.63867 12.4258C7.52539 12.3086 7.46875 12.1699 7.46875 12.0098C7.46875 11.8457 7.52539 11.707 7.63867 11.5938C7.75586 11.4766 7.89648 11.418 8.06055 11.418ZM23.3301 10.3047C23.3301 11.0508 23.0352 11.6543 22.4453 12.1152C23.0352 12.6465 23.3301 13.3086 23.3301 14.1016V15.4082C23.3301 15.5723 23.2734 15.7129 23.1602 15.8301C23.043 15.9434 22.9043 16 22.7441 16C22.5801 16 22.4414 15.9434 22.3281 15.8301C22.2109 15.7129 22.1523 15.5723 22.1523 15.4082V14.1016C22.1523 13.6875 22.0059 13.334 21.7129 13.041C21.4199 12.7441 21.0645 12.5957 20.6465 12.5957H16.4629C16.2988 12.5957 16.1582 12.5391 16.041 12.4258C15.9277 12.3086 15.8711 12.1699 15.8711 12.0098C15.8711 11.8457 15.9277 11.707 16.041 11.5938C16.1582 11.4766 16.2988 11.418 16.4629 11.418H21.0391C21.3477 11.418 21.6094 11.3105 21.8242 11.0957C22.043 10.877 22.1523 10.6133 22.1523 10.3047C22.1523 10 22.043 9.73828 21.8242 9.51953C21.6094 9.30078 21.3477 9.19141 21.0391 9.19141H16.4629C16.2988 9.19141 16.1582 9.13477 16.041 9.02148C15.9277 8.9082 15.8711 8.76953 15.8711 8.60547C15.8711 8.44141 15.9277 8.30273 16.041 8.18945C16.1582 8.07227 16.2988 8.01367 16.4629 8.01367H21.0391C21.6719 8.01367 22.2129 8.23828 22.6621 8.6875C23.1074 9.13672 23.3301 9.67578 23.3301 10.3047ZM24.8652 16C24.7012 16 24.5605 15.9434 24.4434 15.8301C24.3301 15.7129 24.2734 15.5723 24.2734 15.4082C24.2734 15.248 24.3301 15.1094 24.4434 14.9922C24.5605 14.8789 24.7012 14.8223 24.8652 14.8223H29.0488C29.4668 14.8223 29.8223 14.6758 30.1152 14.3828C30.4082 14.0859 30.5547 13.7305 30.5547 13.3164V10.6973C30.5547 10.2832 30.4082 9.92969 30.1152 9.63672C29.8223 9.33984 29.4668 9.19141 29.0488 9.19141H24.8652C24.7012 9.19141 24.5605 9.13477 24.4434 9.02148C24.3301 8.9082 24.2734 8.76953 24.2734 8.60547C24.2734 8.44141 24.3301 8.30273 24.4434 8.18945C24.5605 8.07227 24.7012 8.01367 24.8652 8.01367H29.0488C29.791 8.01367 30.4238 8.27734 30.9473 8.80469C31.4707 9.32812 31.7324 9.95898 31.7324 10.6973V13.3164C31.7324 14.0547 31.4707 14.6875 30.9473 15.2148C30.4238 15.7383 29.791 16 29.0488 16H24.8652ZM33.2676 16C33.1035 16 32.9629 15.9434 32.8457 15.8301C32.7324 15.7129 32.6758 15.5723 32.6758 15.4082V8.60547C32.6758 8.44141 32.7324 8.30273 32.8457 8.18945C32.9629 8.07227 33.1035 8.01367 33.2676 8.01367C33.4277 8.01367 33.5664 8.07227 33.6836 8.18945C33.7969 8.30273 33.8535 8.44141 33.8535 8.60547V15.4082C33.8535 15.5723 33.7969 15.7129 33.6836 15.8301C33.5664 15.9434 33.4277 16 33.2676 16ZM35.9746 11.418H41.0781V10.6973C41.0781 10.2832 40.9316 9.92969 40.6387 9.63672C40.3457 9.33984 39.9902 9.19141 39.5723 9.19141H37.4805C37.0664 9.19141 36.7109 9.33984 36.4141 9.63672C36.1211 9.92969 35.9746 10.2832 35.9746 10.6973V11.418ZM37.4805 8.01367H39.5723C40.3145 8.01367 40.9473 8.27734 41.4707 8.80469C41.9941 9.32812 42.2559 9.95898 42.2559 10.6973V15.4082C42.2559 15.5723 42.1992 15.7129 42.0859 15.8301C41.9688 15.9434 41.8301 16 41.6699 16C41.5059 16 41.3672 15.9434 41.2539 15.8301C41.1367 15.7129 41.0781 15.5723 41.0781 15.4082V12.5957H35.9746V15.4082C35.9746 15.5723 35.918 15.7129 35.8047 15.8301C35.6875 15.9434 35.5488 16 35.3887 16C35.2246 16 35.084 15.9434 34.9668 15.8301C34.8535 15.7129 34.7969 15.5723 34.7969 15.4082V10.6973C34.7969 9.95898 35.0586 9.32812 35.582 8.80469C36.1094 8.27734 36.7422 8.01367 37.4805 8.01367ZM50.4883 10.3281C50.3711 10.4453 50.2324 10.5039 50.0723 10.5039C49.9082 10.5039 49.7695 10.4453 49.6562 10.3281C49.5391 10.2148 49.4805 10.0762 49.4805 9.91211V9.6543C49.4805 9.52539 49.4355 9.41602 49.3457 9.32617C49.2559 9.23633 49.1484 9.19141 49.0234 9.19141H44.834C44.709 9.19141 44.6016 9.23633 44.5117 9.32617C44.4219 9.41602 44.377 9.52539 44.377 9.6543V14.3652C44.377 14.4902 44.4219 14.5977 44.5117 14.6875C44.6016 14.7773 44.709 14.8223 44.834 14.8223H49.0234C49.1484 14.8223 49.2559 14.7773 49.3457 14.6875C49.4355 14.5977 49.4805 14.4902 49.4805 14.3652V12.5957H46.4043C46.2441 12.5957 46.1055 12.5391 45.9883 12.4258C45.875 12.3086 45.8184 12.1699 45.8184 12.0098C45.8184 11.8457 45.875 11.707 45.9883 11.5938C46.1055 11.4766 46.2441 11.418 46.4043 11.418H50.0723C50.2324 11.418 50.3711 11.4766 50.4883 11.5938C50.6016 11.707 50.6582 11.8457 50.6582 12.0098V14.3652C50.6582 14.8145 50.498 15.1992 50.1777 15.5195C49.8574 15.8398 49.4727 16 49.0234 16H44.834C44.3848 16 44 15.8398 43.6797 15.5195C43.3594 15.1992 43.1992 14.8145 43.1992 14.3652V9.6543C43.1992 9.20117 43.3594 8.81445 43.6797 8.49414C44 8.17383 44.3848 8.01367 44.834 8.01367H49.0234C49.4727 8.01367 49.8574 8.17383 50.1777 8.49414C50.498 8.81445 50.6582 9.20117 50.6582 9.6543V9.91211C50.6582 10.0762 50.6016 10.2148 50.4883 10.3281ZM52.7793 11.418H56.7695C57.0781 11.418 57.3398 11.3105 57.5547 11.0957C57.7734 10.877 57.8828 10.6133 57.8828 10.3047C57.8828 10 57.7734 9.73828 57.5547 9.51953C57.3398 9.30078 57.0781 9.19141 56.7695 9.19141H52.7793V11.418ZM59.0605 10.3047C59.0605 11.0508 58.7656 11.6543 58.1758 12.1152C58.7656 12.6465 59.0605 13.3086 59.0605 14.1016V15.4082C59.0605 15.5723 59.0039 15.7129 58.8906 15.8301C58.7734 15.9434 58.6348 16 58.4746 16C58.3105 16 58.1719 15.9434 58.0586 15.8301C57.9414 15.7129 57.8828 15.5723 57.8828 15.4082V14.1016C57.8828 13.6875 57.7363 13.334 57.4434 13.041C57.1504 12.7441 56.7949 12.5957 56.377 12.5957H52.7793V15.4082C52.7793 15.5723 52.7227 15.7129 52.6094 15.8301C52.4922 15.9434 52.3535 16 52.1934 16C52.0293 16 51.8887 15.9434 51.7715 15.8301C51.6582 15.7129 51.6016 15.5723 51.6016 15.4082V8.60547C51.6016 8.44141 51.6582 8.30273 51.7715 8.18945C51.8887 8.07227 52.0293 8.01367 52.1934 8.01367H56.7695C57.4023 8.01367 57.9434 8.23828 58.3926 8.6875C58.8379 9.13672 59.0605 9.67578 59.0605 10.3047ZM61.1816 11.418H66.2852V10.6973C66.2852 10.2832 66.1387 9.92969 65.8457 9.63672C65.5527 9.33984 65.1973 9.19141 64.7793 9.19141H62.6875C62.2734 9.19141 61.918 9.33984 61.6211 9.63672C61.3281 9.92969 61.1816 10.2832 61.1816 10.6973V11.418ZM62.6875 8.01367H64.7793C65.5215 8.01367 66.1543 8.27734 66.6777 8.80469C67.2012 9.32812 67.4629 9.95898 67.4629 10.6973V15.4082C67.4629 15.5723 67.4062 15.7129 67.293 15.8301C67.1758 15.9434 67.0371 16 66.877 16C66.7129 16 66.5742 15.9434 66.4609 15.8301C66.3438 15.7129 66.2852 15.5723 66.2852 15.4082V12.5957H61.1816V15.4082C61.1816 15.5723 61.125 15.7129 61.0117 15.8301C60.8945 15.9434 60.7559 16 60.5957 16C60.4316 16 60.291 15.9434 60.1738 15.8301C60.0605 15.7129 60.0039 15.5723 60.0039 15.4082V10.6973C60.0039 9.95898 60.2656 9.32812 60.7891 8.80469C61.3164 8.27734 61.9492 8.01367 62.6875 8.01367ZM76.3223 16C76.1621 16 76.0234 15.9434 75.9062 15.8301C75.793 15.7129 75.7363 15.5723 75.7363 15.4082V9.95312L73.0586 12.4375C72.9453 12.543 72.8125 12.5957 72.6602 12.5957C72.5039 12.5957 72.3711 12.543 72.2617 12.4375L69.584 9.95312V15.4082C69.584 15.5723 69.5273 15.7129 69.4141 15.8301C69.2969 15.9434 69.1582 16 68.998 16C68.834 16 68.6934 15.9434 68.5762 15.8301C68.4629 15.7129 68.4062 15.5723 68.4062 15.4082V8.60547C68.4062 8.34766 68.5234 8.16797 68.7578 8.06641C68.9961 7.96484 69.209 8 69.3965 8.17188L72.6602 11.207L75.9238 8.17188C76.1113 8 76.3242 7.96484 76.5625 8.06641C76.7969 8.16797 76.9141 8.34766 76.9141 8.60547V15.4082C76.9141 15.5723 76.8555 15.7129 76.7383 15.8301C76.625 15.9434 76.4863 16 76.3223 16ZM78.4434 16C78.2793 16 78.1387 15.9434 78.0215 15.8301C77.9082 15.7129 77.8516 15.5723 77.8516 15.4082V8.60547C77.8516 8.44141 77.9082 8.30273 78.0215 8.18945C78.1387 8.07227 78.2793 8.01367 78.4434 8.01367C78.6035 8.01367 78.7422 8.07227 78.8594 8.18945C78.9727 8.30273 79.0293 8.44141 79.0293 8.60547V14.8223H84.7246C84.8848 14.8223 85.0234 14.8789 85.1406 14.9922C85.2539 15.1094 85.3105 15.248 85.3105 15.4082C85.3105 15.5723 85.2539 15.7129 85.1406 15.8301C85.0234 15.9434 84.8848 16 84.7246 16H78.4434ZM92.7109 8.18945C92.8242 8.07227 92.9629 8.01367 93.127 8.01367C93.2871 8.01367 93.4258 8.07227 93.543 8.18945C93.6562 8.30273 93.7129 8.44141 93.7129 8.60547V14.3652C93.7129 14.8145 93.5527 15.1992 93.2324 15.5195C92.9121 15.8398 92.5273 16 92.0781 16H87.8887C87.4395 16 87.0547 15.8398 86.7344 15.5195C86.4141 15.1992 86.2539 14.8145 86.2539 14.3652V14.1016C86.2539 13.9375 86.3105 13.7988 86.4238 13.6855C86.541 13.5723 86.6816 13.5156 86.8457 13.5156C87.0059 13.5156 87.1445 13.5723 87.2617 13.6855C87.375 13.7988 87.4316 13.9375 87.4316 14.1016V14.3652C87.4316 14.4902 87.4766 14.5977 87.5664 14.6875C87.6562 14.7773 87.7637 14.8223 87.8887 14.8223H92.0781C92.2031 14.8223 92.3105 14.7773 92.4004 14.6875C92.4902 14.5977 92.5352 14.4902 92.5352 14.3652V12.5312C92.3867 12.5742 92.2344 12.5957 92.0781 12.5957H87.8887C87.4395 12.5957 87.0547 12.4355 86.7344 12.1152C86.4141 11.7988 86.2539 11.4141 86.2539 10.9609V8.60547C86.2539 8.44141 86.3105 8.30273 86.4238 8.18945C86.541 8.07227 86.6816 8.01367 86.8457 8.01367C87.0059 8.01367 87.1445 8.07227 87.2617 8.18945C87.375 8.30273 87.4316 8.44141 87.4316 8.60547V10.9609C87.4316 11.0859 87.4766 11.1934 87.5664 11.2832C87.6562 11.373 87.7637 11.418 87.8887 11.418H92.0781C92.2031 11.418 92.3105 11.373 92.4004 11.2832C92.4902 11.1934 92.5352 11.0859 92.5352 10.9609V8.60547C92.5352 8.44141 92.5938 8.30273 92.7109 8.18945Z" fill="#CECECE"/>
    <line y1="18.5" x2="4" y2="18.5" stroke="#D5D5D5"/>
    <line x1="41.5" x2="41.5" y2="4" stroke="#D5D5D5"/>
    <line y1="0.5" x2="41" y2="0.5" stroke="#D5D5D5"/>
    <line x1="0.5" y1="1" x2="0.5" y2="19" stroke="#D5D5D5"/>
    <line x1="44.5" y1="18" x2="44.5" y2="22" stroke="#D5D5D5"/>
    <line x1="44.5" y1="3" x2="44.5" y2="7" stroke="#D5D5D5"/>
    <line x1="3" y1="21.5" x2="44" y2="21.5" stroke="#D5D5D5"/>
    <line x1="3" y1="3.5" x2="44" y2="3.5" stroke="#D5D5D5"/>
    <line x1="3.5" y1="4" x2="3.5" y2="22" stroke="#D5D5D5"/>
</svg>
